<svg aria-hidden="true" style="position: absolute; width: 0; height: 0; overflow: hidden;" version="1.1" xmlns="http://www.w3.org/2000/svg" xmlns:xlink="http://www.w3.org/1999/xlink">
<defs>
<symbol id="icon-account_circle" viewBox="0 0 24 24">
<title>account_circle</title>
<path d="M12 19.219c2.484 0 4.688-1.313 6-3.234-0.047-1.969-4.031-3.094-6-3.094-2.016 0-5.953 1.125-6 3.094 1.313 1.922 3.516 3.234 6 3.234zM12 5.016c-1.641 0-3 1.359-3 3s1.359 3 3 3 3-1.359 3-3-1.359-3-3-3zM12 2.016c5.531 0 9.984 4.453 9.984 9.984s-4.453 9.984-9.984 9.984-9.984-4.453-9.984-9.984 4.453-9.984 9.984-9.984z"></path>
</symbol>
<symbol id="icon-comment" viewBox="0 0 24 24">
<title>comment</title>
<path d="M18 8.016v-2.016h-12v2.016h12zM18 11.016v-2.016h-12v2.016h12zM18 14.016v-2.016h-12v2.016h12zM21.984 3.984v18l-3.984-3.984h-14.016c-1.078 0-1.969-0.938-1.969-2.016v-12c0-1.078 0.891-1.969 1.969-1.969h16.031c1.078 0 1.969 0.891 1.969 1.969z"></path>
</symbol>
<symbol id="icon-face" viewBox="0 0 24 24">
<title>face</title>
<path d="M12 20.016c4.406 0 8.016-3.609 8.016-8.016 0-0.797-0.141-1.547-0.328-2.25-0.703 0.188-1.453 0.234-2.25 0.234-3.375 0-6.328-1.641-8.156-4.219-0.984 2.391-2.906 4.359-5.25 5.391-0.047 0.281-0.047 0.563-0.047 0.844 0 4.406 3.609 8.016 8.016 8.016zM12 2.016c5.531 0 9.984 4.453 9.984 9.984s-4.453 9.984-9.984 9.984-9.984-4.453-9.984-9.984 4.453-9.984 9.984-9.984zM15 11.766c0.703 0 1.266 0.516 1.266 1.219s-0.563 1.266-1.266 1.266-1.266-0.563-1.266-1.266 0.563-1.219 1.266-1.219zM9 11.766c0.703 0 1.266 0.516 1.266 1.219s-0.563 1.266-1.266 1.266-1.266-0.563-1.266-1.266 0.563-1.219 1.266-1.219z"></path>
</symbol>
<symbol id="icon-star" viewBox="0 0 24 24">
<title>star</title>
<path d="M12 17.25l-6.188 3.75 1.641-7.031-5.438-4.734 7.172-0.609 2.813-6.609 2.813 6.609 7.172 0.609-5.438 4.734 1.641 7.031z"></path>
</symbol>
<symbol id="icon-home" viewBox="0 0 24 24">
<title>home</title>
<path d="M9.984 20.016h-4.969v-8.016h-3l9.984-9 9.984 9h-3v8.016h-4.969v-6h-4.031v6z"></path>
</symbol>
<symbol id="icon-search" viewBox="0 0 24 24">
<title>search</title>
<path d="M9.516 14.016c2.484 0 4.5-2.016 4.5-4.5s-2.016-4.5-4.5-4.5-4.5 2.016-4.5 4.5 2.016 4.5 4.5 4.5zM15.516 14.016l4.969 4.969-1.5 1.5-4.969-4.969v-0.797l-0.281-0.281c-1.125 0.984-2.625 1.547-4.219 1.547-3.609 0-6.516-2.859-6.516-6.469s2.906-6.516 6.516-6.516 6.469 2.906 6.469 6.516c0 1.594-0.563 3.094-1.547 4.219l0.281 0.281h0.797z"></path>
</symbol>
<symbol id="icon-file-text2" viewBox="0 0 32 32">
<title>file-text2</title>
<path d="M28.681 7.159c-0.694-0.947-1.662-2.053-2.724-3.116s-2.169-2.030-3.116-2.724c-1.612-1.182-2.393-1.319-2.841-1.319h-15.5c-1.378 0-2.5 1.121-2.5 2.5v27c0 1.378 1.122 2.5 2.5 2.5h23c1.378 0 2.5-1.122 2.5-2.5v-19.5c0-0.448-0.137-1.23-1.319-2.841zM24.543 5.457c0.959 0.959 1.712 1.825 2.268 2.543h-4.811v-4.811c0.718 0.556 1.584 1.309 2.543 2.268zM28 29.5c0 0.271-0.229 0.5-0.5 0.5h-23c-0.271 0-0.5-0.229-0.5-0.5v-27c0-0.271 0.229-0.5 0.5-0.5 0 0 15.499-0 15.5 0v7c0 0.552 0.448 1 1 1h7v19.5z"></path>
<path d="M23 26h-14c-0.552 0-1-0.448-1-1s0.448-1 1-1h14c0.552 0 1 0.448 1 1s-0.448 1-1 1z"></path>
<path d="M23 22h-14c-0.552 0-1-0.448-1-1s0.448-1 1-1h14c0.552 0 1 0.448 1 1s-0.448 1-1 1z"></path>
<path d="M23 18h-14c-0.552 0-1-0.448-1-1s0.448-1 1-1h14c0.552 0 1 0.448 1 1s-0.448 1-1 1z"></path>
</symbol>
<symbol id="icon-eye" viewBox="0 0 32 32">
<title>eye</title>
<path d="M16 6c-6.979 0-13.028 4.064-16 10 2.972 5.936 9.021 10 16 10s13.027-4.064 16-10c-2.972-5.936-9.021-10-16-10zM23.889 11.303c1.88 1.199 3.473 2.805 4.67 4.697-1.197 1.891-2.79 3.498-4.67 4.697-2.362 1.507-5.090 2.303-7.889 2.303s-5.527-0.796-7.889-2.303c-1.88-1.199-3.473-2.805-4.67-4.697 1.197-1.891 2.79-3.498 4.67-4.697 0.122-0.078 0.246-0.154 0.371-0.228-0.311 0.854-0.482 1.776-0.482 2.737 0 4.418 3.582 8 8 8s8-3.582 8-8c0-0.962-0.17-1.883-0.482-2.737 0.124 0.074 0.248 0.15 0.371 0.228v0zM16 13c0 1.657-1.343 3-3 3s-3-1.343-3-3 1.343-3 3-3 3 1.343 3 3z"></path>
</symbol>
</defs>
</svg>
